<?xml version="1.0" encoding="UTF-8"?>
<!-- Created with Inkscape (http://www.inkscape.org/) -->
<svg width="207" height="80" version="1.1" viewBox="0 0 54.769 21.167" xml:space="preserve" xmlns="http://www.w3.org/2000/svg"><g fill="#555"><path d="m1.4078 6.2399c-0.6098-1.1142-0.72272-1.8294-0.72272-2.8758 0-1.2723 0.15057-1.9724 0.68508-2.9586h-0.6098c-0.52698 0.94857-0.76036 1.581-0.76036 2.9586 0 1.1293 0.1581 1.7692 0.79801 2.8758z"/><path d="m5.1193 5.2762v-2.1682c0-0.79048-0.25596-1.3702-1.2196-1.3702-0.51193 0-0.80553 0.42159-0.94104 0.57968l-0.12045-0.48181h-0.6098c0.022585 0.25596 0.082812 0.44417 0.082812 0.73025v2.7102h0.67002v-2.3263c0.14304-0.31619 0.42159-0.68508 0.82059-0.68508 0.58721 0 0.64744 0.399 0.64744 0.83565v2.1757z"/><path d="m8.5522 4.3427c0-0.80553-0.68508-0.98621-1.2346-1.1594-0.35383-0.11293-0.64744-0.21079-0.64744-0.46676 0-0.33125 0.26349-0.4517 0.67002-0.4517 0.36136 0 0.57215 0.1054 0.91846 0.26349l0.24091-0.56463c-0.47429-0.1581-0.81306-0.22585-1.1443-0.22585-0.67002 0-1.3777 0.22585-1.3777 1.0013 0 0.69261 0.58721 0.89587 1.1067 1.0615 0.41406 0.13551 0.77542 0.24091 0.77542 0.54957 0 0.30113-0.14304 0.49687-0.65497 0.49687-0.40653 0-0.63991-0.1054-1.0389-0.26349l-0.23338 0.5571c0.35383 0.14304 0.85823 0.23338 1.2572 0.23338 0.69261 0 1.3626-0.27855 1.3626-1.0314z"/><path d="m14.334 3.5748c0-0.97869-0.37642-1.8369-1.4454-1.8369-0.42912 0-0.73025 0.3463-0.88834 0.57968l-0.13551-0.48181h-0.6098c0.0527 0.39147 0.08281 0.63238 0.08281 1.0389v3.7566h0.67002v-1.724c0.18821 0.26349 0.54204 0.46676 0.92599 0.46676 0.97116 0 1.4003-0.84318 1.4003-1.7993zm-0.69261-0.015057c0 0.97116-0.35383 1.2873-0.80553 1.2873-0.43664 0-0.66249-0.22585-0.83565-0.5044v-1.4003c0.13551-0.33125 0.399-0.67755 0.75284-0.67755 0.6098 0 0.88834 0.399 0.88834 1.2949z"/><path d="m15.855 5.2762v-4.9461h-0.67002v4.9461z"/><path d="m19.679 5.2762c-0.04517-0.399-0.12045-0.78295-0.12045-1.054v-1.3777c0-0.75284-0.51193-1.0991-1.2422-1.0991-0.53451 0-1.0389 0.1054-1.468 0.26349l0.23338 0.5571c0.33125-0.1581 0.73778-0.30113 1.2121-0.30113 0.48182 0 0.58721 0.30866 0.58721 0.67002v0.21832h-0.30866c-1.468 0-1.867 0.51946-1.867 1.2196 0 0.67002 0.51193 0.99374 1.2949 0.99374 0.40653 0 0.75284-0.25596 0.93352-0.46676 0.0075 0.037642 0.12045 0.3463 0.12045 0.37642zm-0.79048-0.83565c-0.14304 0.23338-0.42912 0.40653-0.78295 0.40653-0.40653 0-0.69261-0.16562-0.69261-0.5044 0-0.48934 0.31619-0.72272 1.2648-0.72272h0.21079z"/><path d="m23.458 5.2762v-2.1682c0-0.79048-0.25596-1.3702-1.2196-1.3702-0.51193 0-0.80553 0.42159-0.94104 0.57968l-0.12045-0.48181h-0.6098c0.02258 0.25596 0.08281 0.44417 0.08281 0.73025v2.7102h0.67002v-2.3263c0.14304-0.31619 0.42159-0.68508 0.82059-0.68508 0.58721 0 0.64744 0.399 0.64744 0.83565v2.1757z"/><path d="m27.388 3.8157c0-1.3024-0.33125-2.0703-1.5508-2.0703-1.2045 0-1.5283 1.0464-1.5283 1.8444 0 0.9561 0.48934 1.7767 1.5659 1.7767 0.4517 0 0.91846-0.082812 1.325-0.27102l-0.21832-0.52698c-0.36136 0.18068-0.70014 0.29361-1.0464 0.29361-0.59474 0-0.86576-0.40653-0.91093-1.0464zm-0.65497-0.5044h-1.7165c0.03764-0.75284 0.42159-1.0464 0.82812-1.0464 0.54957 0 0.86576 0.30866 0.88834 1.0464z"/><path d="m30 5.2762c-0.56463-0.11293-0.92599-0.36889-0.92599-0.83565v-2.0854h0.798v-0.52698h-0.798v-0.89587h-0.67755v0.89587h-0.5571v0.52698h0.5571v2.0703c0 0.76789 0.57968 1.2648 1.3702 1.4605z"/><path d="m31.431 5.2762v-0.72272h-0.74531v0.72272z"/><path d="m35.15 5.1332-0.23338-0.5571c-0.2936 0.15057-0.70014 0.27102-0.93352 0.27102-0.63238 0-0.92599-0.45923-0.92599-1.2648 0-0.88082 0.26349-1.3175 0.93352-1.3175 0.25596 0 0.64744 0.14304 0.9034 0.27102l0.23338-0.5571c-0.24844-0.097869-0.82059-0.23338-1.1293-0.23338-1.1293 0-1.6337 0.72272-1.6337 1.8369 0 1.054 0.51946 1.7842 1.6111 1.7842 0.26349 0 0.91093-0.1054 1.1744-0.23338z"/><path d="m36.603 5.2762v-4.9461h-0.67002v4.9461z"/><path d="m40.668 3.5372c0-0.99374-0.40653-1.7993-1.6035-1.7993-1.1895 0-1.6111 0.8507-1.6111 1.7993 0 0.99374 0.41406 1.8369 1.6111 1.8369 1.1895 0 1.6035-0.84318 1.6035-1.8369zm-0.69261 0c0 0.83565-0.25596 1.3099-0.91093 1.3099-0.67755 0-0.91846-0.51193-0.91846-1.3099 0-0.84318 0.28608-1.2723 0.91846-1.2723 0.67002 0 0.91093 0.42912 0.91093 1.2723z"/><path d="m42.196 1.0679v-0.66249h-0.73025v0.66249zm-0.03011 4.1632v-3.3953h-0.67002v3.463c0 0.44417-0.17315 0.63991-0.70014 0.75284l0.22585 0.56463c0.68508-0.21832 1.1443-0.60227 1.1443-1.3852z"/><path d="m46.043 5.2762c-0.02258-0.25596-0.08281-0.44417-0.08281-0.73025v-2.7102h-0.67002v2.3263c-0.14304 0.31619-0.39147 0.68508-0.79048 0.68508-0.56463 0-0.62485-0.40653-0.62485-0.83565v-2.1757h-0.67002v2.1682c0 0.79048 0.27855 1.3702 1.197 1.3702 0.51193 0 0.77542-0.42159 0.91093-0.57968l0.12045 0.48181z"/><path d="m49.085 1.9111c-0.18821-0.11293-0.36889-0.17315-0.63991-0.17315-0.39147 0-0.69261 0.46676-0.81306 0.70014l-0.12045-0.60227h-0.6098c0.02258 0.17315 0.08281 0.42912 0.08281 0.76789v2.6726h0.67002v-2.1832c0.09034-0.21079 0.24844-0.82812 0.67002-0.82812 0.23338 0 0.39148 0.12798 0.51946 0.21079z"/><path d="m52.601 3.8157c0-1.3024-0.33125-2.0703-1.5508-2.0703-1.2045 0-1.5283 1.0464-1.5283 1.8444 0 0.9561 0.48934 1.7767 1.5659 1.7767 0.4517 0 0.91846-0.082812 1.325-0.27102l-0.21832-0.52698c-0.36136 0.18068-0.70014 0.29361-1.0464 0.29361-0.59474 0-0.86576-0.40653-0.91093-1.0464zm-0.65497-0.5044h-1.7165c0.03764-0.75284 0.42159-1.0464 0.82812-1.0464 0.54957 0 0.86576 0.30866 0.88834 1.0464z"/><path d="m54.769 3.364c0-1.3777-0.23338-2.0101-0.76036-2.9586h-0.61732c0.53451 0.98621 0.68508 1.6864 0.68508 2.9586 0 1.0464-0.11292 1.7616-0.72272 2.8758h0.61732c0.63991-1.1067 0.798-1.7466 0.798-2.8758z"/></g><g fill="#9d9d9d"><path d="m1.4078 19.451c-0.6098-1.1142-0.72272-1.8294-0.72272-2.8758 0-1.2723 0.15057-1.9724 0.68508-2.9586h-0.6098c-0.52698 0.94857-0.76036 1.581-0.76036 2.9586 0 1.1293 0.1581 1.7692 0.79801 2.8758z"/><path d="m5.1193 18.488v-2.1682c0-0.79048-0.25596-1.3702-1.2196-1.3702-0.51193 0-0.80553 0.42159-0.94104 0.57968l-0.12045-0.48181h-0.6098c0.022585 0.25596 0.082812 0.44417 0.082812 0.73025v2.7102h0.67002v-2.3263c0.14304-0.31619 0.42159-0.68508 0.82059-0.68508 0.58721 0 0.64744 0.399 0.64744 0.83565v2.1757z"/><path d="m8.5522 17.554c0-0.80553-0.68508-0.98621-1.2346-1.1594-0.35383-0.11293-0.64744-0.21079-0.64744-0.46676 0-0.33125 0.26349-0.4517 0.67002-0.4517 0.36136 0 0.57215 0.1054 0.91846 0.26349l0.24091-0.56463c-0.47429-0.1581-0.81306-0.22585-1.1443-0.22585-0.67002 0-1.3777 0.22585-1.3777 1.0013 0 0.69261 0.58721 0.89587 1.1067 1.0615 0.41406 0.13551 0.77542 0.24091 0.77542 0.54957 0 0.30113-0.14304 0.49687-0.65497 0.49687-0.40653 0-0.63991-0.1054-1.0389-0.26349l-0.23338 0.5571c0.35383 0.14304 0.85823 0.23338 1.2572 0.23338 0.69261 0 1.3626-0.27855 1.3626-1.0314z"/></g><g fill="#105deb"><path d="m14.334 16.786c0-0.97869-0.37642-1.8369-1.4454-1.8369-0.42912 0-0.73025 0.3463-0.88835 0.57968l-0.13551-0.48181h-0.6098c0.0527 0.39147 0.08281 0.63238 0.08281 1.0389v3.7566h0.67002v-1.724c0.18821 0.26349 0.54204 0.46676 0.92599 0.46676 0.97116 0 1.4003-0.84318 1.4003-1.7993zm-0.69261-0.01506c0 0.97116-0.35383 1.2873-0.80553 1.2873-0.43664 0-0.6625-0.22585-0.83565-0.5044v-1.4003c0.13551-0.33125 0.399-0.67755 0.75284-0.67755 0.6098 0 0.88835 0.399 0.88835 1.2949z"/><path d="m15.855 18.488v-4.9461h-0.67002v4.9461z"/><path d="m19.679 18.488c-0.04517-0.399-0.12045-0.78295-0.12045-1.054v-1.3777c0-0.75284-0.51193-1.0991-1.2422-1.0991-0.53451 0-1.0389 0.1054-1.468 0.26349l0.23338 0.5571c0.33125-0.1581 0.73778-0.30113 1.2121-0.30113 0.48182 0 0.58721 0.30866 0.58721 0.67002v0.21832h-0.30866c-1.468 0-1.867 0.51946-1.867 1.2196 0 0.67002 0.51193 0.99374 1.2949 0.99374 0.40653 0 0.75284-0.25596 0.93352-0.46676 0.0075 0.03764 0.12045 0.3463 0.12045 0.37642zm-0.79048-0.83565c-0.14304 0.23338-0.42912 0.40653-0.78295 0.40653-0.40653 0-0.69261-0.16562-0.69261-0.5044 0-0.48934 0.31619-0.72272 1.2648-0.72272h0.21079z"/><path d="m23.458 18.488v-2.1682c0-0.79048-0.25596-1.3702-1.2196-1.3702-0.51193 0-0.80553 0.42159-0.94104 0.57968l-0.12045-0.48181h-0.6098c0.02258 0.25596 0.08281 0.44417 0.08281 0.73025v2.7102h0.67002v-2.3263c0.14304-0.31619 0.42159-0.68508 0.82059-0.68508 0.58721 0 0.64744 0.399 0.64744 0.83565v2.1757z"/><path d="m27.388 17.027c0-1.3024-0.33125-2.0703-1.5508-2.0703-1.2045 0-1.5283 1.0464-1.5283 1.8444 0 0.9561 0.48934 1.7767 1.5659 1.7767 0.4517 0 0.91846-0.08281 1.325-0.27102l-0.21832-0.52698c-0.36136 0.18068-0.70014 0.29361-1.0464 0.29361-0.59474 0-0.86576-0.40653-0.91093-1.0464zm-0.65497-0.5044h-1.7165c0.03764-0.75284 0.42159-1.0464 0.82812-1.0464 0.54957 0 0.86576 0.30866 0.88835 1.0464z"/><path d="m30 18.488c-0.56463-0.11292-0.92599-0.36889-0.92599-0.83565v-2.0854h0.798v-0.52698h-0.798v-0.89587h-0.67755v0.89587h-0.5571v0.52698h0.5571v2.0703c0 0.76789 0.57968 1.2648 1.3702 1.4605z"/></g><path d="m31.431 18.488v-0.72272h-0.74531v0.72272z"/><g fill="#488a0e"><path d="m35.15 18.345-0.23338-0.5571c-0.29361 0.15057-0.70014 0.27102-0.93352 0.27102-0.63238 0-0.92599-0.45923-0.92599-1.2648 0-0.88082 0.26349-1.3175 0.93352-1.3175 0.25596 0 0.64744 0.14304 0.9034 0.27102l0.23338-0.5571c-0.24844-0.09787-0.82059-0.23338-1.1293-0.23338-1.1293 0-1.6337 0.72272-1.6337 1.8369 0 1.054 0.51946 1.7842 1.6111 1.7842 0.26349 0 0.91093-0.1054 1.1744-0.23338z"/><path d="m36.603 18.488v-4.9461h-0.67002v4.9461z"/><path d="m40.668 16.749c0-0.99374-0.40653-1.7993-1.6035-1.7993-1.1895 0-1.6111 0.8507-1.6111 1.7993 0 0.99374 0.41406 1.8369 1.6111 1.8369 1.1895 0 1.6035-0.84318 1.6035-1.8369zm-0.69261 0c0 0.83565-0.25596 1.3099-0.91093 1.3099-0.67755 0-0.91846-0.51193-0.91846-1.3099 0-0.84318 0.28608-1.2723 0.91846-1.2723 0.67002 0 0.91093 0.42912 0.91093 1.2723z"/><path d="m42.196 14.279v-0.6625h-0.73025v0.6625zm-0.03011 4.1632v-3.3953h-0.67002v3.463c0 0.44417-0.17315 0.63991-0.70014 0.75284l0.22585 0.56463c0.68508-0.21832 1.1443-0.60227 1.1443-1.3852z"/><path d="m46.043 18.488c-0.02258-0.25596-0.08281-0.44417-0.08281-0.73025v-2.7102h-0.67002v2.3263c-0.14304 0.31619-0.39147 0.68508-0.79048 0.68508-0.56463 0-0.62485-0.40653-0.62485-0.83565v-2.1757h-0.67002v2.1682c0 0.79048 0.27855 1.3702 1.197 1.3702 0.51193 0 0.77542-0.42159 0.91093-0.57968l0.12045 0.48182z"/><path d="m49.085 15.123c-0.18821-0.11292-0.36889-0.17315-0.63991-0.17315-0.39148 0-0.69261 0.46676-0.81306 0.70014l-0.12045-0.60227h-0.6098c0.02258 0.17315 0.08281 0.42912 0.08281 0.76789v2.6726h0.67002v-2.1832c0.09034-0.21079 0.24844-0.82812 0.67002-0.82812 0.23338 0 0.39147 0.12798 0.51946 0.21079z"/><path d="m52.601 17.027c0-1.3024-0.33125-2.0703-1.5508-2.0703-1.2045 0-1.5283 1.0464-1.5283 1.8444 0 0.9561 0.48934 1.7767 1.5659 1.7767 0.4517 0 0.91846-0.08281 1.325-0.27102l-0.21832-0.52698c-0.36136 0.18068-0.70014 0.29361-1.0464 0.29361-0.59474 0-0.86576-0.40653-0.91093-1.0464zm-0.65497-0.5044h-1.7165c0.03764-0.75284 0.42159-1.0464 0.82812-1.0464 0.54957 0 0.86576 0.30866 0.88834 1.0464z"/></g><path d="m54.769 16.576c0-1.3777-0.23338-2.0101-0.76036-2.9586h-0.61732c0.53451 0.98621 0.68508 1.6864 0.68508 2.9586 0 1.0464-0.11292 1.7616-0.72272 2.8758h0.61732c0.63991-1.1067 0.798-1.7466 0.798-2.8758z" fill="#9d9d9d"/></svg>
